<?xml version="1.0" encoding="UTF-8" standalone="no"?>
<!DOCTYPE svg PUBLIC "-//W3C//DTD SVG 1.1//EN"
 "http://www.w3.org/Graphics/SVG/1.1/DTD/svg11.dtd">
<!-- Generated by graphviz version 2.43.0 (0)
 -->
<!-- Title: %3 Pages: 1 -->
<svg width="988pt" height="238pt"
 viewBox="0.00 0.00 988.00 237.74" xmlns="http://www.w3.org/2000/svg" xmlns:xlink="http://www.w3.org/1999/xlink">
<g id="graph0" class="graph" transform="scale(1 1) rotate(0) translate(36 201.74)">
<title>%3</title>
<polygon fill="dimgray" stroke="transparent" points="-36,36 -36,-201.74 952,-201.74 952,36 -36,36"/>
<text text-anchor="middle" x="458" y="-150.54" font-family="Helvetica,sans-Serif" font-size="14.00">Sweep&#39;s Plan &amp; Progress</text>
<!-- start -->
<g id="node1" class="node">
<title>start</title>
</g>
<!-- 5b008e2a&#45;0ea9&#45;47a2&#45;8719&#45;1700dbb820d5 -->
<g id="node3" class="node">
<title>5b008e2a&#45;0ea9&#45;47a2&#45;8719&#45;1700dbb820d5</title>
<ellipse fill="yellow" stroke="black" cx="248.5" cy="-99.87" rx="168.08" ry="26.74"/>
<text text-anchor="middle" x="248.5" y="-103.67" font-family="Helvetica,sans-Serif" font-size="14.00">⋯ Create</text>
<text text-anchor="middle" x="248.5" y="-88.67" font-family="Helvetica,sans-Serif" font-size="14.00">sweepai/agents/mini_sweepy.py</text>
</g>
<!-- start&#45;&gt;5b008e2a&#45;0ea9&#45;47a2&#45;8719&#45;1700dbb820d5 -->
<g id="edge4" class="edge">
<title>start&#45;&gt;5b008e2a&#45;0ea9&#45;47a2&#45;8719&#45;1700dbb820d5</title>
<path fill="none" stroke="black" d="M29.13,-99.87C32.41,-99.87 48.22,-99.87 69.96,-99.87"/>
<polygon fill="black" stroke="black" points="69.98,-103.37 79.98,-99.87 69.98,-96.37 69.98,-103.37"/>
<text text-anchor="middle" x="54.6" y="-106.67" font-family="Helvetica,sans-Serif" font-size="14.00">Start</text>
</g>
<!-- end -->
<g id="node2" class="node">
<title>end</title>
</g>
<!-- 56a05b55&#45;b7ac&#45;440d&#45;8f7d&#45;42703b078168 -->
<g id="node4" class="node">
<title>56a05b55&#45;b7ac&#45;440d&#45;8f7d&#45;42703b078168</title>
<ellipse fill="white" stroke="black" cx="663.5" cy="-99.87" rx="194.41" ry="26.74"/>
<text text-anchor="middle" x="663.5" y="-103.67" font-family="Helvetica,sans-Serif" font-size="14.00">▶ Modify</text>
<text text-anchor="middle" x="663.5" y="-88.67" font-family="Helvetica,sans-Serif" font-size="14.00">sweepai/agents/taskmaster_agent.py</text>
</g>
<!-- 5b008e2a&#45;0ea9&#45;47a2&#45;8719&#45;1700dbb820d5&#45;&gt;56a05b55&#45;b7ac&#45;440d&#45;8f7d&#45;42703b078168 -->
<g id="edge2" class="edge">
<title>5b008e2a&#45;0ea9&#45;47a2&#45;8719&#45;1700dbb820d5&#45;&gt;56a05b55&#45;b7ac&#45;440d&#45;8f7d&#45;42703b078168</title>
<path fill="none" stroke="black" d="M417.09,-99.87C430.91,-99.87 444.72,-99.87 458.53,-99.87"/>
<polygon fill="black" stroke="black" points="458.59,-103.37 468.59,-99.87 458.59,-96.37 458.59,-103.37"/>
</g>
<!-- 7c0d20c4&#45;1c1c&#45;4a02&#45;af72&#45;e7a4f2c84a8e -->
<g id="node5" class="node">
<title>7c0d20c4&#45;1c1c&#45;4a02&#45;af72&#45;e7a4f2c84a8e</title>
<polygon fill="white" stroke="black" points="429,-36 0,-36 0,0 429,0 429,-36"/>
<text text-anchor="middle" x="214.5" y="-14.3" font-family="Helvetica,sans-Serif" font-size="14.00">▶ Run GitHub Actions for `sweepai/agents/mini_sweepy.py`</text>
</g>
<!-- 5b008e2a&#45;0ea9&#45;47a2&#45;8719&#45;1700dbb820d5&#45;&gt;7c0d20c4&#45;1c1c&#45;4a02&#45;af72&#45;e7a4f2c84a8e -->
<g id="edge1" class="edge">
<title>5b008e2a&#45;0ea9&#45;47a2&#45;8719&#45;1700dbb820d5&#45;&gt;7c0d20c4&#45;1c1c&#45;4a02&#45;af72&#45;e7a4f2c84a8e</title>
<path fill="none" stroke="black" stroke-dasharray="5,2" d="M237.37,-72.72C233.65,-63.99 229.51,-54.26 225.79,-45.51"/>
<polygon fill="black" stroke="black" points="228.94,-43.98 221.8,-36.15 222.5,-46.72 228.94,-43.98"/>
</g>
<!-- 56a05b55&#45;b7ac&#45;440d&#45;8f7d&#45;42703b078168&#45;&gt;end -->
<g id="edge5" class="edge">
<title>56a05b55&#45;b7ac&#45;440d&#45;8f7d&#45;42703b078168&#45;&gt;end</title>
<path fill="none" stroke="black" d="M858,-99.87C877.83,-99.87 894.41,-99.87 904.6,-99.87"/>
<polygon fill="black" stroke="black" points="904.88,-103.37 914.88,-99.87 904.88,-96.37 904.88,-103.37"/>
<text text-anchor="middle" x="886.48" y="-106.67" font-family="Helvetica,sans-Serif" font-size="14.00">Finish</text>
</g>
<!-- c707b8a8&#45;1ded&#45;4117&#45;aa62&#45;5ed4358583c5 -->
<g id="node6" class="node">
<title>c707b8a8&#45;1ded&#45;4117&#45;aa62&#45;5ed4358583c5</title>
<polygon fill="white" stroke="black" points="914,-36 447,-36 447,0 914,0 914,-36"/>
<text text-anchor="middle" x="680.5" y="-14.3" font-family="Helvetica,sans-Serif" font-size="14.00">▶ Run GitHub Actions for `sweepai/agents/taskmaster_agent.py`</text>
</g>
<!-- 56a05b55&#45;b7ac&#45;440d&#45;8f7d&#45;42703b078168&#45;&gt;c707b8a8&#45;1ded&#45;4117&#45;aa62&#45;5ed4358583c5 -->
<g id="edge3" class="edge">
<title>56a05b55&#45;b7ac&#45;440d&#45;8f7d&#45;42703b078168&#45;&gt;c707b8a8&#45;1ded&#45;4117&#45;aa62&#45;5ed4358583c5</title>
<path fill="none" stroke="black" stroke-dasharray="5,2" d="M669.07,-72.72C670.88,-64.18 672.91,-54.68 674.74,-46.08"/>
<polygon fill="black" stroke="black" points="678.19,-46.66 676.85,-36.15 671.35,-45.2 678.19,-46.66"/>
</g>
</g>
</svg>
