<?xml version="1.0" encoding="UTF-8" standalone="no"?>
<!DOCTYPE svg PUBLIC "-//W3C//DTD SVG 1.1//EN"
 "http://www.w3.org/Graphics/SVG/1.1/DTD/svg11.dtd">
<!-- Generated by graphviz version 2.43.0 (0)
 -->
<!-- Title: %3 Pages: 1 -->
<svg width="992pt" height="238pt"
 viewBox="0.00 0.00 991.50 237.74" xmlns="http://www.w3.org/2000/svg" xmlns:xlink="http://www.w3.org/1999/xlink">
<g id="graph0" class="graph" transform="scale(1 1) rotate(0) translate(36 201.74)">
<title>%3</title>
<polygon fill="dimgray" stroke="transparent" points="-36,36 -36,-201.74 955.5,-201.74 955.5,36 -36,36"/>
<text text-anchor="middle" x="459.75" y="-150.54" font-family="Helvetica,sans-Serif" font-size="14.00">Sweep&#39;s Plan &amp; Progress</text>
<!-- start -->
<g id="node1" class="node">
<title>start</title>
</g>
<!-- 5b008e2a&#45;0ea9&#45;47a2&#45;8719&#45;1700dbb820d5 -->
<g id="node3" class="node">
<title>5b008e2a&#45;0ea9&#45;47a2&#45;8719&#45;1700dbb820d5</title>
<ellipse fill="#0ee832" stroke="black" cx="250.5" cy="-99.87" rx="168.08" ry="26.74"/>
<text text-anchor="middle" x="250.5" y="-103.67" font-family="Helvetica,sans-Serif" font-size="14.00">✓ Create</text>
<text text-anchor="middle" x="250.5" y="-88.67" font-family="Helvetica,sans-Serif" font-size="14.00">sweepai/agents/mini_sweepy.py</text>
</g>
<!-- start&#45;&gt;5b008e2a&#45;0ea9&#45;47a2&#45;8719&#45;1700dbb820d5 -->
<g id="edge4" class="edge">
<title>start&#45;&gt;5b008e2a&#45;0ea9&#45;47a2&#45;8719&#45;1700dbb820d5</title>
<path fill="none" stroke="black" d="M31.13,-99.87C34.41,-99.87 50.22,-99.87 71.96,-99.87"/>
<polygon fill="black" stroke="black" points="71.98,-103.37 81.98,-99.87 71.98,-96.37 71.98,-103.37"/>
<text text-anchor="middle" x="56.6" y="-106.67" font-family="Helvetica,sans-Serif" font-size="14.00">Start</text>
</g>
<!-- end -->
<g id="node2" class="node">
<title>end</title>
</g>
<!-- 56a05b55&#45;b7ac&#45;440d&#45;8f7d&#45;42703b078168 -->
<g id="node4" class="node">
<title>56a05b55&#45;b7ac&#45;440d&#45;8f7d&#45;42703b078168</title>
<ellipse fill="#0ee832" stroke="black" cx="666.5" cy="-99.87" rx="194.41" ry="26.74"/>
<text text-anchor="middle" x="666.5" y="-103.67" font-family="Helvetica,sans-Serif" font-size="14.00">✓ Modify</text>
<text text-anchor="middle" x="666.5" y="-88.67" font-family="Helvetica,sans-Serif" font-size="14.00">sweepai/agents/taskmaster_agent.py</text>
</g>
<!-- 5b008e2a&#45;0ea9&#45;47a2&#45;8719&#45;1700dbb820d5&#45;&gt;56a05b55&#45;b7ac&#45;440d&#45;8f7d&#45;42703b078168 -->
<g id="edge2" class="edge">
<title>5b008e2a&#45;0ea9&#45;47a2&#45;8719&#45;1700dbb820d5&#45;&gt;56a05b55&#45;b7ac&#45;440d&#45;8f7d&#45;42703b078168</title>
<path fill="none" stroke="black" d="M419.09,-99.87C433.22,-99.87 447.35,-99.87 461.48,-99.87"/>
<polygon fill="black" stroke="black" points="461.76,-103.37 471.76,-99.87 461.76,-96.37 461.76,-103.37"/>
</g>
<!-- 7c0d20c4&#45;1c1c&#45;4a02&#45;af72&#45;e7a4f2c84a8e -->
<g id="node5" class="node">
<title>7c0d20c4&#45;1c1c&#45;4a02&#45;af72&#45;e7a4f2c84a8e</title>
<polygon fill="#0ee832" stroke="black" points="431,-36 0,-36 0,0 431,0 431,-36"/>
<text text-anchor="middle" x="215.5" y="-14.3" font-family="Helvetica,sans-Serif" font-size="14.00">✓ Run GitHub Actions for `sweepai/agents/mini_sweepy.py`</text>
</g>
<!-- 5b008e2a&#45;0ea9&#45;47a2&#45;8719&#45;1700dbb820d5&#45;&gt;7c0d20c4&#45;1c1c&#45;4a02&#45;af72&#45;e7a4f2c84a8e -->
<g id="edge1" class="edge">
<title>5b008e2a&#45;0ea9&#45;47a2&#45;8719&#45;1700dbb820d5&#45;&gt;7c0d20c4&#45;1c1c&#45;4a02&#45;af72&#45;e7a4f2c84a8e</title>
<path fill="none" stroke="black" stroke-dasharray="5,2" d="M239.04,-72.72C235.22,-63.99 230.95,-54.26 227.12,-45.51"/>
<polygon fill="black" stroke="black" points="230.23,-43.9 223.01,-36.15 223.82,-46.71 230.23,-43.9"/>
</g>
<!-- 56a05b55&#45;b7ac&#45;440d&#45;8f7d&#45;42703b078168&#45;&gt;end -->
<g id="edge5" class="edge">
<title>56a05b55&#45;b7ac&#45;440d&#45;8f7d&#45;42703b078168&#45;&gt;end</title>
<path fill="none" stroke="black" d="M861,-99.87C880.83,-99.87 897.41,-99.87 907.6,-99.87"/>
<polygon fill="black" stroke="black" points="907.88,-103.37 917.88,-99.87 907.88,-96.37 907.88,-103.37"/>
<text text-anchor="middle" x="889.48" y="-106.67" font-family="Helvetica,sans-Serif" font-size="14.00">Finish</text>
</g>
<!-- c707b8a8&#45;1ded&#45;4117&#45;aa62&#45;5ed4358583c5 -->
<g id="node6" class="node">
<title>c707b8a8&#45;1ded&#45;4117&#45;aa62&#45;5ed4358583c5</title>
<polygon fill="yellow" stroke="black" points="919.5,-36 449.5,-36 449.5,0 919.5,0 919.5,-36"/>
<text text-anchor="middle" x="684.5" y="-14.3" font-family="Helvetica,sans-Serif" font-size="14.00">⋯ Run GitHub Actions for `sweepai/agents/taskmaster_agent.py`</text>
</g>
<!-- 56a05b55&#45;b7ac&#45;440d&#45;8f7d&#45;42703b078168&#45;&gt;c707b8a8&#45;1ded&#45;4117&#45;aa62&#45;5ed4358583c5 -->
<g id="edge3" class="edge">
<title>56a05b55&#45;b7ac&#45;440d&#45;8f7d&#45;42703b078168&#45;&gt;c707b8a8&#45;1ded&#45;4117&#45;aa62&#45;5ed4358583c5</title>
<path fill="none" stroke="black" stroke-dasharray="5,2" d="M672.39,-72.72C674.32,-64.18 676.46,-54.68 678.4,-46.08"/>
<polygon fill="black" stroke="black" points="681.85,-46.67 680.64,-36.15 675.02,-45.13 681.85,-46.67"/>
</g>
</g>
</svg>
