<?xml version="1.0" encoding="UTF-8" standalone="no"?>
<!DOCTYPE svg PUBLIC "-//W3C//DTD SVG 1.1//EN"
 "http://www.w3.org/Graphics/SVG/1.1/DTD/svg11.dtd">
<!-- Generated by graphviz version 2.43.0 (0)
 -->
<!-- Title: %3 Pages: 1 -->
<svg width="990pt" height="238pt"
 viewBox="0.00 0.00 990.00 237.74" xmlns="http://www.w3.org/2000/svg" xmlns:xlink="http://www.w3.org/1999/xlink">
<g id="graph0" class="graph" transform="scale(1 1) rotate(0) translate(36 201.74)">
<title>%3</title>
<polygon fill="dimgray" stroke="transparent" points="-36,36 -36,-201.74 954,-201.74 954,36 -36,36"/>
<text text-anchor="middle" x="459" y="-150.54" font-family="Helvetica,sans-Serif" font-size="14.00">Sweep&#39;s Plan &amp; Progress</text>
<!-- start -->
<g id="node1" class="node">
<title>start</title>
</g>
<!-- 5b008e2a&#45;0ea9&#45;47a2&#45;8719&#45;1700dbb820d5 -->
<g id="node3" class="node">
<title>5b008e2a&#45;0ea9&#45;47a2&#45;8719&#45;1700dbb820d5</title>
<ellipse fill="#0ee832" stroke="black" cx="249.5" cy="-99.87" rx="168.08" ry="26.74"/>
<text text-anchor="middle" x="249.5" y="-103.67" font-family="Helvetica,sans-Serif" font-size="14.00">✓ Create</text>
<text text-anchor="middle" x="249.5" y="-88.67" font-family="Helvetica,sans-Serif" font-size="14.00">sweepai/agents/mini_sweepy.py</text>
</g>
<!-- start&#45;&gt;5b008e2a&#45;0ea9&#45;47a2&#45;8719&#45;1700dbb820d5 -->
<g id="edge4" class="edge">
<title>start&#45;&gt;5b008e2a&#45;0ea9&#45;47a2&#45;8719&#45;1700dbb820d5</title>
<path fill="none" stroke="black" d="M30.13,-99.87C33.41,-99.87 49.22,-99.87 70.96,-99.87"/>
<polygon fill="black" stroke="black" points="70.98,-103.37 80.98,-99.87 70.98,-96.37 70.98,-103.37"/>
<text text-anchor="middle" x="55.6" y="-106.67" font-family="Helvetica,sans-Serif" font-size="14.00">Start</text>
</g>
<!-- end -->
<g id="node2" class="node">
<title>end</title>
</g>
<!-- 56a05b55&#45;b7ac&#45;440d&#45;8f7d&#45;42703b078168 -->
<g id="node4" class="node">
<title>56a05b55&#45;b7ac&#45;440d&#45;8f7d&#45;42703b078168</title>
<ellipse fill="white" stroke="black" cx="665.5" cy="-99.87" rx="194.41" ry="26.74"/>
<text text-anchor="middle" x="665.5" y="-103.67" font-family="Helvetica,sans-Serif" font-size="14.00">▶ Modify</text>
<text text-anchor="middle" x="665.5" y="-88.67" font-family="Helvetica,sans-Serif" font-size="14.00">sweepai/agents/taskmaster_agent.py</text>
</g>
<!-- 5b008e2a&#45;0ea9&#45;47a2&#45;8719&#45;1700dbb820d5&#45;&gt;56a05b55&#45;b7ac&#45;440d&#45;8f7d&#45;42703b078168 -->
<g id="edge2" class="edge">
<title>5b008e2a&#45;0ea9&#45;47a2&#45;8719&#45;1700dbb820d5&#45;&gt;56a05b55&#45;b7ac&#45;440d&#45;8f7d&#45;42703b078168</title>
<path fill="none" stroke="black" d="M418.09,-99.87C432.22,-99.87 446.35,-99.87 460.48,-99.87"/>
<polygon fill="black" stroke="black" points="460.76,-103.37 470.76,-99.87 460.76,-96.37 460.76,-103.37"/>
</g>
<!-- 7c0d20c4&#45;1c1c&#45;4a02&#45;af72&#45;e7a4f2c84a8e -->
<g id="node5" class="node">
<title>7c0d20c4&#45;1c1c&#45;4a02&#45;af72&#45;e7a4f2c84a8e</title>
<polygon fill="#0ee832" stroke="black" points="431,-36 0,-36 0,0 431,0 431,-36"/>
<text text-anchor="middle" x="215.5" y="-14.3" font-family="Helvetica,sans-Serif" font-size="14.00">✓ Run GitHub Actions for `sweepai/agents/mini_sweepy.py`</text>
</g>
<!-- 5b008e2a&#45;0ea9&#45;47a2&#45;8719&#45;1700dbb820d5&#45;&gt;7c0d20c4&#45;1c1c&#45;4a02&#45;af72&#45;e7a4f2c84a8e -->
<g id="edge1" class="edge">
<title>5b008e2a&#45;0ea9&#45;47a2&#45;8719&#45;1700dbb820d5&#45;&gt;7c0d20c4&#45;1c1c&#45;4a02&#45;af72&#45;e7a4f2c84a8e</title>
<path fill="none" stroke="black" stroke-dasharray="5,2" d="M238.37,-72.72C234.65,-63.99 230.51,-54.26 226.79,-45.51"/>
<polygon fill="black" stroke="black" points="229.94,-43.98 222.8,-36.15 223.5,-46.72 229.94,-43.98"/>
</g>
<!-- 56a05b55&#45;b7ac&#45;440d&#45;8f7d&#45;42703b078168&#45;&gt;end -->
<g id="edge5" class="edge">
<title>56a05b55&#45;b7ac&#45;440d&#45;8f7d&#45;42703b078168&#45;&gt;end</title>
<path fill="none" stroke="black" d="M860,-99.87C879.83,-99.87 896.41,-99.87 906.6,-99.87"/>
<polygon fill="black" stroke="black" points="906.88,-103.37 916.88,-99.87 906.88,-96.37 906.88,-103.37"/>
<text text-anchor="middle" x="888.48" y="-106.67" font-family="Helvetica,sans-Serif" font-size="14.00">Finish</text>
</g>
<!-- c707b8a8&#45;1ded&#45;4117&#45;aa62&#45;5ed4358583c5 -->
<g id="node6" class="node">
<title>c707b8a8&#45;1ded&#45;4117&#45;aa62&#45;5ed4358583c5</title>
<polygon fill="white" stroke="black" points="916,-36 449,-36 449,0 916,0 916,-36"/>
<text text-anchor="middle" x="682.5" y="-14.3" font-family="Helvetica,sans-Serif" font-size="14.00">▶ Run GitHub Actions for `sweepai/agents/taskmaster_agent.py`</text>
</g>
<!-- 56a05b55&#45;b7ac&#45;440d&#45;8f7d&#45;42703b078168&#45;&gt;c707b8a8&#45;1ded&#45;4117&#45;aa62&#45;5ed4358583c5 -->
<g id="edge3" class="edge">
<title>56a05b55&#45;b7ac&#45;440d&#45;8f7d&#45;42703b078168&#45;&gt;c707b8a8&#45;1ded&#45;4117&#45;aa62&#45;5ed4358583c5</title>
<path fill="none" stroke="black" stroke-dasharray="5,2" d="M671.07,-72.72C672.88,-64.18 674.91,-54.68 676.74,-46.08"/>
<polygon fill="black" stroke="black" points="680.19,-46.66 678.85,-36.15 673.35,-45.2 680.19,-46.66"/>
</g>
</g>
</svg>
