<?xml version="1.0" encoding="UTF-8" standalone="no"?>
<!DOCTYPE svg PUBLIC "-//W3C//DTD SVG 1.1//EN"
 "http://www.w3.org/Graphics/SVG/1.1/DTD/svg11.dtd">
<!-- Generated by graphviz version 2.43.0 (0)
 -->
<!-- Title: %3 Pages: 1 -->
<svg width="992pt" height="238pt"
 viewBox="0.00 0.00 992.00 237.74" xmlns="http://www.w3.org/2000/svg" xmlns:xlink="http://www.w3.org/1999/xlink">
<g id="graph0" class="graph" transform="scale(1 1) rotate(0) translate(36 201.74)">
<title>%3</title>
<polygon fill="dimgray" stroke="transparent" points="-36,36 -36,-201.74 956,-201.74 956,36 -36,36"/>
<text text-anchor="middle" x="460" y="-150.54" font-family="Helvetica,sans-Serif" font-size="14.00">Sweep&#39;s Plan &amp; Progress</text>
<!-- start -->
<g id="node1" class="node">
<title>start</title>
</g>
<!-- 5b008e2a&#45;0ea9&#45;47a2&#45;8719&#45;1700dbb820d5 -->
<g id="node3" class="node">
<title>5b008e2a&#45;0ea9&#45;47a2&#45;8719&#45;1700dbb820d5</title>
<ellipse fill="#0ee832" stroke="black" cx="251.5" cy="-99.87" rx="168.08" ry="26.74"/>
<text text-anchor="middle" x="251.5" y="-103.67" font-family="Helvetica,sans-Serif" font-size="14.00">✓ Create</text>
<text text-anchor="middle" x="251.5" y="-88.67" font-family="Helvetica,sans-Serif" font-size="14.00">sweepai/agents/mini_sweepy.py</text>
</g>
<!-- start&#45;&gt;5b008e2a&#45;0ea9&#45;47a2&#45;8719&#45;1700dbb820d5 -->
<g id="edge4" class="edge">
<title>start&#45;&gt;5b008e2a&#45;0ea9&#45;47a2&#45;8719&#45;1700dbb820d5</title>
<path fill="none" stroke="black" d="M32.13,-99.87C35.41,-99.87 51.22,-99.87 72.96,-99.87"/>
<polygon fill="black" stroke="black" points="72.98,-103.37 82.98,-99.87 72.98,-96.37 72.98,-103.37"/>
<text text-anchor="middle" x="57.6" y="-106.67" font-family="Helvetica,sans-Serif" font-size="14.00">Start</text>
</g>
<!-- end -->
<g id="node2" class="node">
<title>end</title>
</g>
<!-- 56a05b55&#45;b7ac&#45;440d&#45;8f7d&#45;42703b078168 -->
<g id="node4" class="node">
<title>56a05b55&#45;b7ac&#45;440d&#45;8f7d&#45;42703b078168</title>
<ellipse fill="white" stroke="black" cx="667.5" cy="-99.87" rx="194.41" ry="26.74"/>
<text text-anchor="middle" x="667.5" y="-103.67" font-family="Helvetica,sans-Serif" font-size="14.00">▶ Modify</text>
<text text-anchor="middle" x="667.5" y="-88.67" font-family="Helvetica,sans-Serif" font-size="14.00">sweepai/agents/taskmaster_agent.py</text>
</g>
<!-- 5b008e2a&#45;0ea9&#45;47a2&#45;8719&#45;1700dbb820d5&#45;&gt;56a05b55&#45;b7ac&#45;440d&#45;8f7d&#45;42703b078168 -->
<g id="edge2" class="edge">
<title>5b008e2a&#45;0ea9&#45;47a2&#45;8719&#45;1700dbb820d5&#45;&gt;56a05b55&#45;b7ac&#45;440d&#45;8f7d&#45;42703b078168</title>
<path fill="none" stroke="black" d="M420.09,-99.87C434.22,-99.87 448.35,-99.87 462.48,-99.87"/>
<polygon fill="black" stroke="black" points="462.76,-103.37 472.76,-99.87 462.76,-96.37 462.76,-103.37"/>
</g>
<!-- 7c0d20c4&#45;1c1c&#45;4a02&#45;af72&#45;e7a4f2c84a8e -->
<g id="node5" class="node">
<title>7c0d20c4&#45;1c1c&#45;4a02&#45;af72&#45;e7a4f2c84a8e</title>
<polygon fill="yellow" stroke="black" points="433,-36 0,-36 0,0 433,0 433,-36"/>
<text text-anchor="middle" x="216.5" y="-14.3" font-family="Helvetica,sans-Serif" font-size="14.00">⋯ Run GitHub Actions for `sweepai/agents/mini_sweepy.py`</text>
</g>
<!-- 5b008e2a&#45;0ea9&#45;47a2&#45;8719&#45;1700dbb820d5&#45;&gt;7c0d20c4&#45;1c1c&#45;4a02&#45;af72&#45;e7a4f2c84a8e -->
<g id="edge1" class="edge">
<title>5b008e2a&#45;0ea9&#45;47a2&#45;8719&#45;1700dbb820d5&#45;&gt;7c0d20c4&#45;1c1c&#45;4a02&#45;af72&#45;e7a4f2c84a8e</title>
<path fill="none" stroke="black" stroke-dasharray="5,2" d="M240.04,-72.72C236.22,-63.99 231.95,-54.26 228.12,-45.51"/>
<polygon fill="black" stroke="black" points="231.23,-43.9 224.01,-36.15 224.82,-46.71 231.23,-43.9"/>
</g>
<!-- 56a05b55&#45;b7ac&#45;440d&#45;8f7d&#45;42703b078168&#45;&gt;end -->
<g id="edge5" class="edge">
<title>56a05b55&#45;b7ac&#45;440d&#45;8f7d&#45;42703b078168&#45;&gt;end</title>
<path fill="none" stroke="black" d="M862,-99.87C881.83,-99.87 898.41,-99.87 908.6,-99.87"/>
<polygon fill="black" stroke="black" points="908.88,-103.37 918.88,-99.87 908.88,-96.37 908.88,-103.37"/>
<text text-anchor="middle" x="890.48" y="-106.67" font-family="Helvetica,sans-Serif" font-size="14.00">Finish</text>
</g>
<!-- c707b8a8&#45;1ded&#45;4117&#45;aa62&#45;5ed4358583c5 -->
<g id="node6" class="node">
<title>c707b8a8&#45;1ded&#45;4117&#45;aa62&#45;5ed4358583c5</title>
<polygon fill="white" stroke="black" points="918,-36 451,-36 451,0 918,0 918,-36"/>
<text text-anchor="middle" x="684.5" y="-14.3" font-family="Helvetica,sans-Serif" font-size="14.00">▶ Run GitHub Actions for `sweepai/agents/taskmaster_agent.py`</text>
</g>
<!-- 56a05b55&#45;b7ac&#45;440d&#45;8f7d&#45;42703b078168&#45;&gt;c707b8a8&#45;1ded&#45;4117&#45;aa62&#45;5ed4358583c5 -->
<g id="edge3" class="edge">
<title>56a05b55&#45;b7ac&#45;440d&#45;8f7d&#45;42703b078168&#45;&gt;c707b8a8&#45;1ded&#45;4117&#45;aa62&#45;5ed4358583c5</title>
<path fill="none" stroke="black" stroke-dasharray="5,2" d="M673.07,-72.72C674.88,-64.18 676.91,-54.68 678.74,-46.08"/>
<polygon fill="black" stroke="black" points="682.19,-46.66 680.85,-36.15 675.35,-45.2 682.19,-46.66"/>
</g>
</g>
</svg>
